<svg width="67" height="67" viewBox="0 0 67 67" fill="none" xmlns="http://www.w3.org/2000/svg">
<g clip-path="url(#clip0_349_70)">
<path d="M32.5 59C17.8641 59 6 47.136 6 32.5C6 17.8641 17.8641 6 32.5 6C47.136 6 59 17.8641 59 32.5C59 47.136 47.136 59 32.5 59ZM32.5 53.7C38.1226 53.7 43.5149 51.4664 47.4907 47.4907C51.4664 43.5149 53.7 38.1226 53.7 32.5C53.7 26.8774 51.4664 21.4851 47.4907 17.5093C43.5149 13.5336 38.1226 11.3 32.5 11.3C26.8774 11.3 21.4851 13.5336 17.5093 17.5093C13.5336 21.4851 11.3 26.8774 11.3 32.5C11.3 38.1226 13.5336 43.5149 17.5093 47.4907C21.4851 51.4664 26.8774 53.7 32.5 53.7ZM32.5 19.25C33.2028 19.25 33.8769 19.5292 34.3738 20.0262C34.8708 20.5231 35.15 21.1972 35.15 21.9V35.15C35.15 35.8528 34.8708 36.5269 34.3738 37.0238C33.8769 37.5208 33.2028 37.8 32.5 37.8C31.7972 37.8 31.1231 37.5208 30.6262 37.0238C30.1292 36.5269 29.85 35.8528 29.85 35.15V21.9C29.85 21.1972 30.1292 20.5231 30.6262 20.0262C31.1231 19.5292 31.7972 19.25 32.5 19.25ZM32.5 45.75C31.7972 45.75 31.1231 45.4708 30.6262 44.9738C30.1292 44.4769 29.85 43.8028 29.85 43.1C29.85 42.3972 30.1292 41.7231 30.6262 41.2262C31.1231 40.7292 31.7972 40.45 32.5 40.45C33.2028 40.45 33.8769 40.7292 34.3738 41.2262C34.8708 41.7231 35.15 42.3972 35.15 43.1C35.15 43.8028 34.8708 44.4769 34.3738 44.9738C33.8769 45.4708 33.2028 45.75 32.5 45.75Z" fill="#F24822"/>
</g>
<defs>
<clipPath id="clip0_349_70">
<rect width="67" height="67" fill="white"/>
</clipPath>
</defs>
</svg>
