<svg width="54" height="53" viewBox="0 0 54 53" fill="none" xmlns="http://www.w3.org/2000/svg">
<path d="M23.0587 37.1845L12.8369 26.9603L16.2434 23.5538L23.0587 30.3668L36.6845 16.7385L40.0934 20.1474L23.0587 37.1845Z" fill="#26DC53"/>
<path fill-rule="evenodd" clip-rule="evenodd" d="M0.791504 26.7917C0.791504 12.1565 12.6563 0.291748 27.2915 0.291748C41.9267 0.291748 53.7915 12.1565 53.7915 26.7917C53.7915 41.427 41.9267 53.2917 27.2915 53.2917C12.6563 53.2917 0.791504 41.427 0.791504 26.7917ZM27.2915 48.4736C24.4442 48.4736 21.6248 47.9128 18.9942 46.8231C16.3637 45.7335 13.9735 44.1365 11.9601 42.1231C9.9468 40.1098 8.34973 37.7196 7.26012 35.089C6.1705 32.4585 5.60969 29.639 5.60969 26.7917C5.60969 23.9445 6.1705 21.125 7.26012 18.4945C8.34973 15.8639 9.9468 13.4737 11.9601 11.4604C13.9735 9.44704 16.3637 7.84997 18.9942 6.76036C21.6248 5.67075 24.4442 5.10993 27.2915 5.10993C33.0419 5.10993 38.5567 7.39426 42.6229 11.4604C46.689 15.5265 48.9733 21.0414 48.9733 26.7917C48.9733 32.5421 46.689 38.057 42.6229 42.1231C38.5567 46.1892 33.0419 48.4736 27.2915 48.4736Z" fill="#26DC53"/>
</svg>
