<svg width="56" height="55" viewBox="0 0 56 55" fill="none" xmlns="http://www.w3.org/2000/svg">
<g clip-path="url(#clip0_349_97)">
<path d="M25.0587 39.1845L14.8369 28.9603L18.2434 25.5538L25.0587 32.3668L38.6845 18.7385L42.0934 22.1474L25.0587 39.1845Z" fill="#EC3136"/>
<path fill-rule="evenodd" clip-rule="evenodd" d="M2.7915 28.7917C2.7915 14.1565 14.6563 2.29175 29.2915 2.29175C43.9267 2.29175 55.7915 14.1565 55.7915 28.7917C55.7915 43.427 43.9267 55.2917 29.2915 55.2917C14.6563 55.2917 2.7915 43.427 2.7915 28.7917ZM29.2915 50.4736C26.4442 50.4736 23.6248 49.9128 20.9942 48.8231C18.3637 47.7335 15.9735 46.1365 13.9601 44.1231C11.9468 42.1098 10.3497 39.7196 9.26012 37.089C8.1705 34.4585 7.60969 31.639 7.60969 28.7917C7.60969 25.9445 8.1705 23.125 9.26012 20.4945C10.3497 17.8639 11.9468 15.4737 13.9601 13.4604C15.9735 11.447 18.3637 9.84997 20.9942 8.76036C23.6248 7.67075 26.4442 7.10993 29.2915 7.10993C35.0419 7.10993 40.5567 9.39426 44.6229 13.4604C48.689 17.5265 50.9733 23.0414 50.9733 28.7917C50.9733 34.5421 48.689 40.057 44.6229 44.1231C40.5567 48.1892 35.0419 50.4736 29.2915 50.4736Z" fill="#EC3136"/>
</g>
<defs>
<clipPath id="clip0_349_97">
<rect width="55" height="55" fill="white" transform="translate(0.5)"/>
</clipPath>
</defs>
</svg>
