<svg width="18" height="18" viewBox="0 0 18 18" fill="none" xmlns="http://www.w3.org/2000/svg">
<path d="M8.99984 15.6667C10.7679 15.6667 12.4636 14.9643 13.7139 13.714C14.9641 12.4638 15.6665 10.7681 15.6665 8.99999C15.6665 7.23188 14.9641 5.53619 13.7139 4.28594C12.4636 3.0357 10.7679 2.33332 8.99984 2.33332C7.23173 2.33332 5.53603 3.0357 4.28579 4.28594C3.03555 5.53619 2.33317 7.23188 2.33317 8.99999C2.33317 10.7681 3.03555 12.4638 4.28579 13.714C5.53603 14.9643 7.23173 15.6667 8.99984 15.6667ZM8.99984 0.666656C10.0942 0.666656 11.1778 0.882205 12.1889 1.30099C13.1999 1.71978 14.1186 2.33361 14.8924 3.10743C15.6662 3.88125 16.28 4.79991 16.6988 5.81096C17.1176 6.82201 17.3332 7.90564 17.3332 8.99999C17.3332 11.2101 16.4552 13.3297 14.8924 14.8925C13.3296 16.4553 11.21 17.3333 8.99984 17.3333C4.3915 17.3333 0.666504 13.5833 0.666504 8.99999C0.666504 6.78985 1.54448 4.67024 3.10728 3.10743C4.67008 1.54463 6.7897 0.666656 8.99984 0.666656ZM9.4165 4.83332V9.20832L13.1665 11.4333L12.5415 12.4583L8.1665 9.83332V4.83332H9.4165Z" fill="#737F92"/>
</svg>
