<svg width="10" height="6" viewBox="0 0 10 6" fill="none" xmlns="http://www.w3.org/2000/svg">
<path d="M9.00005 0C9.56805 0 9.86472 0.657333 9.52205 1.082L9.47138 1.138L5.47138 5.138C5.35659 5.25278 5.20385 5.32174 5.04184 5.33193C4.87982 5.34211 4.71965 5.29283 4.59138 5.19333L4.52872 5.138L0.528717 1.138L0.473383 1.07533L0.437383 1.024L0.401383 0.96L0.39005 0.936L0.37205 0.891333L0.350717 0.819334L0.34405 0.784L0.337384 0.744L0.334717 0.706V0.627333L0.33805 0.588666L0.34405 0.548666L0.350717 0.514L0.37205 0.442L0.39005 0.397333L0.436717 0.309333L0.48005 0.249333L0.528717 0.195333L0.591383 0.14L0.642717 0.104L0.706717 0.0679998L0.730717 0.0566669L0.775383 0.0386667L0.847383 0.0173335L0.882717 0.0106668L0.922717 0.00400019L0.960717 0.00133324L9.00005 0Z" fill="black"/>
</svg>
