<svg width="26" height="26" viewBox="0 0 26 26" fill="none" xmlns="http://www.w3.org/2000/svg">
<path d="M4.33337 20.5833V10.8333C4.33337 10.4902 4.41029 10.1652 4.56412 9.85829C4.71796 9.55135 4.92993 9.29857 5.20004 9.09996L11.7 4.22496C12.0792 3.93607 12.5125 3.79163 13 3.79163C13.4875 3.79163 13.9209 3.93607 14.3 4.22496L20.8 9.09996C21.0709 9.29857 21.2832 9.55135 21.437 9.85829C21.5909 10.1652 21.6674 10.4902 21.6667 10.8333V20.5833C21.6667 21.1791 21.4544 21.6894 21.0297 22.114C20.605 22.5387 20.0952 22.7507 19.5 22.75H16.25C15.9431 22.75 15.686 22.646 15.4787 22.438C15.2714 22.23 15.1674 21.9728 15.1667 21.6666V16.25C15.1667 15.943 15.0627 15.6859 14.8547 15.4786C14.6467 15.2713 14.3896 15.1673 14.0834 15.1666H11.9167C11.6098 15.1666 11.3527 15.2706 11.1454 15.4786C10.9381 15.6866 10.8341 15.9437 10.8334 16.25V21.6666C10.8334 21.9736 10.7294 22.231 10.5214 22.439C10.3134 22.647 10.0563 22.7507 9.75004 22.75H6.50004C5.90421 22.75 5.39432 22.538 4.97037 22.114C4.54643 21.6901 4.3341 21.1798 4.33337 20.5833Z" fill="#B4B4C7"/>
</svg>
