<svg width="22" height="22" viewBox="0 0 22 22" fill="none" xmlns="http://www.w3.org/2000/svg">
<path fill-rule="evenodd" clip-rule="evenodd" d="M0 2.35714C0 1.73199 0.248341 1.13244 0.690391 0.690391C1.13244 0.248341 1.73199 0 2.35714 0L13.3571 0C13.9823 0 14.5818 0.248341 15.0239 0.690391C15.4659 1.13244 15.7143 1.73199 15.7143 2.35714V5.40414C15.0767 5.91485 14.663 6.65376 14.5609 7.46429H9.03571C8.5714 7.46429 8.11163 7.55574 7.68265 7.73343C7.25368 7.91111 6.86391 8.17155 6.53559 8.49987C6.20727 8.82819 5.94683 9.21797 5.76914 9.64694C5.59145 10.0759 5.5 10.5357 5.5 11C5.5 11.4643 5.59145 11.9241 5.76914 12.3531C5.94683 12.782 6.20727 13.1718 6.53559 13.5001C6.86391 13.8284 7.25368 14.0889 7.68265 14.2666C8.11163 14.4443 8.5714 14.5357 9.03571 14.5357H14.5609C14.663 15.3462 15.0767 16.0851 15.7143 16.5959V19.6429C15.7143 20.268 15.4659 20.8676 15.0239 21.3096C14.5818 21.7517 13.9823 22 13.3571 22H2.35714C1.73199 22 1.13244 21.7517 0.690391 21.3096C0.248341 20.8676 0 20.268 0 19.6429L0 2.35714ZM17.2276 6.76814C17.0122 6.85735 16.8281 7.00843 16.6986 7.20228C16.5691 7.39612 16.5 7.62402 16.5 7.85714V9.42857H9.03571C8.61895 9.42857 8.21925 9.59413 7.92455 9.88883C7.62985 10.1835 7.46429 10.5832 7.46429 11C7.46429 11.4168 7.62985 11.8165 7.92455 12.1112C8.21925 12.4059 8.61895 12.5714 9.03571 12.5714H16.5V14.1429C16.5002 14.3758 16.5694 14.6035 16.699 14.7971C16.8285 14.9907 17.0125 15.1416 17.2277 15.2307C17.4429 15.3199 17.6797 15.3432 17.9082 15.2978C18.1367 15.2524 18.3466 15.1403 18.5114 14.9757L21.6543 11.8329C21.875 11.6119 21.999 11.3123 21.999 11C21.999 10.6877 21.875 10.3881 21.6543 10.1671L18.5114 7.02429C18.3467 6.85946 18.1368 6.74715 17.9083 6.70156C17.6798 6.65597 17.4429 6.67914 17.2276 6.76814Z" fill="#DC2626"/>
</svg>
