<svg width="20" height="22" viewBox="0 0 20 22" fill="none" xmlns="http://www.w3.org/2000/svg">
<path fill-rule="evenodd" clip-rule="evenodd" d="M0.0834961 8.16216V13.8378C0.0834961 16.5134 0.0834962 17.8511 0.925375 18.6824C1.69022 19.4375 2.87857 19.5065 5.1217 19.5129C5.00317 18.7261 4.9784 17.7863 4.97217 16.6804C4.96952 16.2102 5.35343 15.827 5.82967 15.8243C6.30589 15.8217 6.69411 16.2008 6.69676 16.6709C6.70376 17.9121 6.7364 18.792 6.86064 19.4597C6.98034 20.1031 7.17256 20.4756 7.45247 20.7519C7.77066 21.0661 8.21738 21.271 9.06111 21.3829C9.92958 21.4982 11.0806 21.5 12.731 21.5H13.8807C15.531 21.5 16.682 21.4982 17.5505 21.3829C18.3942 21.271 18.8409 21.0661 19.1591 20.7519C19.4773 20.4377 19.6848 19.9966 19.7982 19.1637C19.915 18.3064 19.9168 17.1699 19.9168 15.5405V6.45946C19.9168 4.83007 19.915 3.69367 19.7982 2.83625C19.6848 2.00331 19.4773 1.56223 19.1591 1.24807C18.8409 0.933907 18.3942 0.729075 17.5505 0.617087C16.682 0.501808 15.531 0.5 13.8807 0.5H12.731C11.0806 0.5 9.92958 0.501808 9.06111 0.617087C8.21738 0.729075 7.77066 0.933907 7.45247 1.24807C7.17256 1.52441 6.98034 1.89683 6.86064 2.54023C6.7364 3.20797 6.70376 4.08779 6.69676 5.32907C6.69411 5.79924 6.30589 6.17828 5.82967 6.17566C5.35343 6.17304 4.96952 5.78977 4.97217 5.31958C4.9784 4.21376 5.00317 3.27384 5.1217 2.48712C2.87857 2.49345 1.69022 2.56254 0.925375 3.31768C0.0834962 4.14886 0.0834961 5.48662 0.0834961 8.16216ZM2.92299 11.602C2.58623 11.2695 2.58623 10.7305 2.92299 10.398L5.22248 8.12774C5.55922 7.79526 6.10521 7.79526 6.44196 8.12774C6.77872 8.46021 6.77872 8.99928 6.44196 9.33178L5.61452 10.1487H13.8804C14.3566 10.1487 14.7428 10.5298 14.7428 11C14.7428 11.4702 14.3566 11.8513 13.8804 11.8513H5.61452L6.44196 12.6682C6.77872 13.0007 6.77872 13.5398 6.44196 13.8722C6.10521 14.2047 5.55922 14.2047 5.22248 13.8722L2.92299 11.602Z" fill="#DC2626"/>
</svg>
