<svg width="25" height="25" viewBox="0 0 25 25" fill="none" xmlns="http://www.w3.org/2000/svg">
<path d="M16.25 5.75C16.25 7.14239 15.6969 8.47774 14.7123 9.46231C13.7277 10.4469 12.3924 11 11 11C9.60761 11 8.27226 10.4469 7.28769 9.46231C6.30312 8.47774 5.75 7.14239 5.75 5.75C5.75 4.35761 6.30312 3.02226 7.28769 2.03769C8.27226 1.05312 9.60761 0.5 11 0.5C12.3924 0.5 13.7277 1.05312 14.7123 2.03769C15.6969 3.02226 16.25 4.35761 16.25 5.75ZM0.5 19.75C0.5 21.5 2.25 21.5 2.25 21.5H11.448C11.1507 20.6568 10.9992 19.7691 11 18.875C11 17.7497 11.2411 16.6374 11.7072 15.6132C12.1733 14.5889 12.8535 13.6765 13.702 12.9373C12.8853 12.8148 11.9847 12.7523 11 12.75C2.25 12.75 0.5 18 0.5 19.75ZM17.8005 13.555C18.1155 12.4823 19.6345 12.4823 19.9513 13.555L20.0265 13.814C20.0735 13.9747 20.1559 14.1227 20.2677 14.2474C20.3795 14.372 20.5177 14.4699 20.6724 14.5341C20.827 14.5982 20.994 14.6269 21.1612 14.6179C21.3283 14.609 21.4913 14.5627 21.6383 14.4825L21.8763 14.353C22.858 13.8175 23.9325 14.892 23.3988 15.8737L23.2675 16.1117C23.1876 16.2586 23.1416 16.4215 23.1328 16.5884C23.1241 16.7554 23.1528 16.9221 23.2169 17.0765C23.281 17.2309 23.3789 17.369 23.5033 17.4807C23.6277 17.5923 23.7756 17.6747 23.936 17.7217L24.1968 17.8005C25.2677 18.1155 25.2677 19.6345 24.1968 19.9513L23.9342 20.0265C23.7739 20.0739 23.6262 20.1566 23.502 20.2685C23.3778 20.3805 23.2802 20.5188 23.2164 20.6734C23.1526 20.828 23.1243 20.9948 23.1334 21.1618C23.1426 21.3288 23.189 21.4916 23.2692 21.6383L23.3988 21.8763C23.9325 22.858 22.858 23.9325 21.8763 23.3988L21.6383 23.2675C21.4914 23.1876 21.3285 23.1416 21.1616 23.1328C20.9946 23.1241 20.8279 23.1528 20.6735 23.2169C20.5191 23.281 20.381 23.3789 20.2693 23.5033C20.1577 23.6277 20.0753 23.7756 20.0283 23.936L19.9495 24.1968C19.6345 25.2677 18.1155 25.2677 17.7987 24.1968L17.7235 23.9342C17.6761 23.7739 17.5934 23.6262 17.4815 23.502C17.3695 23.3778 17.2312 23.2802 17.0766 23.2164C16.922 23.1526 16.7552 23.1243 16.5882 23.1334C16.4212 23.1426 16.2584 23.189 16.1117 23.2692L15.8737 23.3988C14.892 23.9325 13.8175 22.858 14.3512 21.8763L14.4825 21.6383C14.5624 21.4914 14.6084 21.3285 14.6172 21.1616C14.6259 20.9946 14.5972 20.8279 14.5331 20.6735C14.469 20.5191 14.3711 20.381 14.2467 20.2693C14.1223 20.1577 13.9744 20.0753 13.814 20.0283L13.555 19.9495C12.4823 19.6345 12.4823 18.1155 13.555 17.7987L13.814 17.7235C13.9747 17.6765 14.1227 17.5941 14.2474 17.4823C14.372 17.3705 14.4699 17.2323 14.5341 17.0776C14.5982 16.923 14.6269 16.756 14.6179 16.5888C14.609 16.4217 14.5627 16.2587 14.4825 16.1117L14.353 15.8737C13.8175 14.892 14.892 13.8175 15.8737 14.3512L16.1117 14.4825C16.2586 14.5624 16.4215 14.6084 16.5884 14.6172C16.7554 14.6259 16.9221 14.5972 17.0765 14.5331C17.2309 14.469 17.369 14.3711 17.4807 14.2467C17.5923 14.1223 17.6747 13.9744 17.7217 13.814L17.8005 13.555ZM21.5 18.875C21.5 18.5303 21.4321 18.1889 21.3002 17.8705C21.1683 17.552 20.9749 17.2626 20.7312 17.0188C20.4874 16.7751 20.198 16.5817 19.8795 16.4498C19.5611 16.3179 19.2197 16.25 18.875 16.25C18.5303 16.25 18.1889 16.3179 17.8705 16.4498C17.552 16.5817 17.2626 16.7751 17.0188 17.0188C16.7751 17.2626 16.5817 17.552 16.4498 17.8705C16.3179 18.1889 16.25 18.5303 16.25 18.875C16.25 19.5712 16.5266 20.2389 17.0188 20.7312C17.5111 21.2234 18.1788 21.5 18.875 21.5C19.5712 21.5 20.2389 21.2234 20.7312 20.7312C21.2234 20.2389 21.5 19.5712 21.5 18.875Z" fill="#29334D"/>
</svg>
