<svg width="26" height="26" viewBox="0 0 26 26" fill="none" xmlns="http://www.w3.org/2000/svg">
<path d="M11.7271 23.8333C11.2396 23.8333 10.82 23.6708 10.4683 23.3458C10.1165 23.0208 9.9042 22.6236 9.83125 22.1542L9.5875 20.3667C9.35278 20.2764 9.13178 20.168 8.9245 20.0417C8.71722 19.9153 8.51392 19.7799 8.31458 19.6354L6.63542 20.3396C6.18403 20.5382 5.73264 20.5562 5.28125 20.3937C4.82986 20.2312 4.47778 19.9423 4.225 19.5271L2.95208 17.3062C2.69931 16.891 2.62709 16.4486 2.73542 15.9792C2.84375 15.5097 3.0875 15.1215 3.46667 14.8146L4.90209 13.7312C4.88403 13.6049 4.875 13.4828 4.875 13.3651V12.6338C4.875 12.5168 4.88403 12.3951 4.90209 12.2687L3.46667 11.1854C3.0875 10.8785 2.84375 10.4903 2.73542 10.0208C2.62709 9.55138 2.69931 9.10902 2.95208 8.69374L4.225 6.47291C4.47778 6.05763 4.82986 5.76874 5.28125 5.60624C5.73264 5.44374 6.18403 5.4618 6.63542 5.66041L8.31458 6.36457C8.5132 6.22013 8.72083 6.08471 8.9375 5.95832C9.15417 5.83193 9.37083 5.7236 9.5875 5.63332L9.83125 3.84582C9.90347 3.37638 10.1158 2.97916 10.4683 2.65416C10.8207 2.32916 11.2403 2.16666 11.7271 2.16666H14.2729C14.7604 2.16666 15.1804 2.32916 15.5328 2.65416C15.8853 2.97916 16.0972 3.37638 16.1688 3.84582L16.4125 5.63332C16.6472 5.7236 16.8686 5.83193 17.0766 5.95832C17.2846 6.08471 17.4875 6.22013 17.6854 6.36457L19.3646 5.66041C19.816 5.4618 20.2674 5.44374 20.7188 5.60624C21.1701 5.76874 21.5222 6.05763 21.775 6.47291L23.0479 8.69374C23.3007 9.10902 23.3729 9.55138 23.2646 10.0208C23.1563 10.4903 22.9125 10.8785 22.5333 11.1854L21.0979 12.2687C21.116 12.3951 21.125 12.5172 21.125 12.6349V13.3651C21.125 13.4828 21.1069 13.6049 21.0708 13.7312L22.5063 14.8146C22.8854 15.1215 23.1292 15.5097 23.2375 15.9792C23.3458 16.4486 23.2736 16.891 23.0208 17.3062L21.7208 19.5271C21.4681 19.9423 21.116 20.2312 20.6646 20.3937C20.2132 20.5562 19.7618 20.5382 19.3104 20.3396L17.6854 19.6354C17.4868 19.7799 17.2792 19.9153 17.0625 20.0417C16.8458 20.168 16.6292 20.2764 16.4125 20.3667L16.1688 22.1542C16.0965 22.6236 15.8846 23.0208 15.5328 23.3458C15.1811 23.6708 14.7611 23.8333 14.2729 23.8333H11.7271ZM13.0542 16.7917C14.1014 16.7917 14.9951 16.4215 15.7354 15.6812C16.4757 14.941 16.8458 14.0472 16.8458 13C16.8458 11.9528 16.4757 11.059 15.7354 10.3187C14.9951 9.57846 14.1014 9.20832 13.0542 9.20832C11.9889 9.20832 11.0904 9.57846 10.3588 10.3187C9.62722 11.059 9.26178 11.9528 9.2625 13C9.26322 14.0472 9.62903 14.941 10.3599 15.6812C11.0908 16.4215 11.9889 16.7917 13.0542 16.7917Z" fill="#B4B4C7"/>
</svg>
