<svg width="10253" height="5651" viewBox="0 0 10253 5651" fill="none" xmlns="http://www.w3.org/2000/svg">
<g clip-path="url(#clip0_68_35)">
<path opacity="0.999" fill-rule="evenodd" clip-rule="evenodd" d="M5811.5 -0.5C5900.83 -0.5 5990.17 -0.5 6079.5 -0.5C6120.57 136.372 6161.23 273.372 6201.5 410.5C6270.96 429.813 6337.46 456.48 6401 490.5C6528.9 424.135 6656.73 357.635 6784.5 291C6785.5 290.333 6786.5 290.333 6787.5 291C6850.83 353.667 6914.17 416.333 6977.5 479C6910.09 605.159 6842.42 731.159 6774.5 857C6812.03 922.235 6841.2 991.068 6862 1063.5C6999.6 1108.87 7137.43 1153.53 7275.5 1197.5C7275.83 1287.17 7275.5 1376.84 7274.5 1466.5C7137.83 1506.83 7001.17 1547.17 6864.5 1587.5C6844.58 1655.1 6817.91 1719.93 6784.5 1782C6852.06 1910.62 6918.89 2039.45 6985 2168.5C6922.32 2232.01 6859.49 2295.35 6796.5 2358.5C6670.78 2290.64 6544.78 2223.31 6418.5 2156.5C6354.39 2192.48 6287.06 2220.98 6216.5 2242C6171.6 2379.87 6127.6 2518.04 6084.5 2656.5C5994.83 2657.02 5905.16 2657.02 5815.5 2656.5C5774.51 2520.22 5733.68 2383.88 5693 2247.5C5615.87 2225.18 5542.37 2194.18 5472.5 2154.5C5342.3 2218.6 5211.96 2282.1 5081.5 2345C5019.09 2281.26 4957.43 2216.93 4896.5 2152C4966.83 2027.67 5037.17 1903.33 5107.5 1779C5075.22 1718.94 5049.72 1656.11 5031 1590.5C4893.34 1545 4755.51 1500 4617.5 1455.5C4617.84 1365.83 4618.51 1276.16 4619.5 1186.5C4756.55 1146.66 4893.55 1106.66 5030.5 1066.5C5049.62 1000.95 5075.29 938.117 5107.5 878C5042.23 746.123 4977.23 614.123 4912.5 482C4976.7 419.469 5041.2 357.303 5106 295.5C5227.75 364.627 5349.59 433.627 5471.5 502.5C5537.12 464.403 5606.46 435.07 5679.5 414.5C5723.04 276.016 5767.04 137.683 5811.5 -0.5ZM5916.5 765.5C6090.91 760.167 6238.41 819.834 6359 944.5C6479.42 1079.13 6527.42 1236.46 6503 1416.5C6475.86 1569.71 6400.36 1692.54 6276.5 1785C6149.33 1874.11 6008.66 1907.11 5854.5 1884C5689.57 1853.27 5561.4 1768.11 5470 1628.5C5384.68 1487.62 5362.68 1337.29 5404 1177.5C5447.1 1032.12 5533.26 920.285 5662.5 842C5741.24 796.586 5825.9 771.086 5916.5 765.5Z" fill="#EC3136"/>
<path opacity="0.999" fill-rule="evenodd" clip-rule="evenodd" d="M10252.5 3669.5C10252.5 3695.5 10252.5 3721.5 10252.5 3747.5C10248.6 3747.75 10246.6 3749.75 10246.5 3753.5C10100.8 3796.69 9955.1 3840.19 9809.5 3884C9805.89 3884.75 9802.72 3886.25 9800 3888.5C9786.22 3957.96 9768.55 4026.29 9747 4093.5C9855.32 4206.65 9963.82 4319.65 10072.5 4432.5C10011.9 4540.96 9951.03 4649.29 9890 4757.5C9889.28 4756.55 9888.45 4756.38 9887.5 4757C9886.52 4759.14 9885.19 4760.97 9883.5 4762.5C9730.96 4726.16 9578.29 4690.66 9425.5 4656C9373.47 4715.03 9317.8 4770.37 9258.5 4822C9294.24 4974.46 9329.91 5126.96 9365.5 5279.5C9365.02 5280.48 9364.36 5281.31 9363.5 5282C9361.07 5282.64 9359.4 5284.14 9358.5 5286.5C9251.17 5348.17 9143.83 5409.83 9036.5 5471.5C8923.35 5362.85 8810.35 5254.02 8697.5 5145C8628.86 5166.74 8559.2 5184.91 8488.5 5199.5C8443.03 5347.71 8398.03 5496.04 8353.5 5644.5C8349.07 5644.02 8346.73 5646.02 8346.5 5650.5C8344.17 5650.5 8341.83 5650.5 8339.5 5650.5C8218 5649.67 8096.33 5649.17 7974.5 5649C7930.77 5498.26 7887.27 5347.43 7844 5196.5C7775.67 5182.46 7708.5 5164.13 7642.5 5141.5C7530.71 5246.45 7419.38 5351.95 7308.5 5458C7305.66 5460.18 7302.82 5462.35 7300 5464.5C7192.77 5403.8 7085.6 5342.97 6978.5 5282C6977.43 5281.26 6976.76 5280.26 6976.5 5279C7013.19 5126.56 7050.19 4974.23 7087.5 4822C7030.64 4771.81 6977.14 4718.31 6927 4661.5C6774.67 4697.5 6622.33 4733.5 6470 4769.5C6407.26 4662.36 6344.76 4555.03 6282.5 4447.5C6366.02 4360.48 6449.35 4273.32 6532.5 4186C6724.83 4185.33 6917.17 4185.33 7109.5 4186C7261.44 4444.25 7477.77 4626.25 7758.5 4732C8001.88 4818 8248.55 4828.67 8498.5 4764C8780.58 4685.65 9007.08 4528.49 9178 4292.5C9341.67 4058.42 9417 3798.09 9404 3511.5C9384.36 3211.32 9273.03 2951.65 9070 2732.5C8882.38 2536.41 8654.22 2413.58 8385.5 2364C8112.23 2318.66 7852.23 2358.66 7605.5 2484C7414.34 2584.48 7260.01 2725.48 7142.5 2907C6932.17 2907.67 6721.83 2907.67 6511.5 2907C6440.83 2830.33 6370.17 2753.67 6299.5 2677C6362.71 2570.75 6425.54 2464.25 6488 2357.5C6491.27 2356.95 6493.43 2355.12 6494.5 2352C6646.43 2390.11 6798.27 2428.94 6950 2468.5C6978.74 2438.76 7007.91 2409.26 7037.5 2380C7059.09 2360.57 7080.42 2341.07 7101.5 2321.5C7067.4 2170.49 7033.23 2019.49 6999 1868.5C6998.19 1866.42 6998.36 1864.42 6999.5 1862.5C7002.63 1860.87 7005.29 1858.7 7007.5 1856C7114.33 1795.75 7221 1735.25 7327.5 1674.5C7439.99 1783.82 7552.32 1893.32 7664.5 2003C7665.83 2003.67 7667.17 2003.67 7668.5 2003C7730.48 1982.84 7793.48 1966.67 7857.5 1954.5C7901.99 1805.55 7946.32 1656.55 7990.5 1507.5C7994.51 1508.11 7996.51 1506.45 7996.5 1502.5C8120.83 1501.52 8245.17 1501.35 8369.5 1502C8414.04 1652.67 8458.04 1803.51 8501.5 1954.5C8567.97 1967.28 8633.31 1984.12 8697.5 2005C8802.14 1904.7 8906.47 1804.03 9010.5 1703C9019.05 1694.78 9027.88 1686.95 9037 1679.5C9144.9 1739.53 9252.73 1799.7 9360.5 1860C9361.06 1860.72 9361.39 1861.56 9361.5 1862.5C9326.15 2015.11 9290.48 2167.61 9254.5 2320C9310.97 2369.47 9364.47 2421.97 9415 2477.5C9565.48 2440.26 9715.98 2403.09 9866.5 2366C9869.03 2365.1 9871.19 2365.6 9873 2367.5C9935.46 2473.58 9998.29 2579.41 10061.5 2685C9953.95 2799.93 9846.28 2914.76 9738.5 3029.5C9762.83 3099.16 9782.33 3170.16 9797 3242.5C9947.14 3287.5 10097.6 3331.5 10248.5 3374.5C10249.7 3473 10251.1 3571.33 10252.5 3669.5Z" fill="#A8AAAD"/>
<path opacity="0.998" fill-rule="evenodd" clip-rule="evenodd" d="M8395.5 3186.5C8438.83 3186.5 8482.17 3186.5 8525.5 3186.5C8525.33 3288.17 8525.5 3389.83 8526 3491.5C8612.13 3389.71 8698.63 3288.21 8785.5 3187C8843.83 3186.33 8902.17 3186.33 8960.5 3187C8880.17 3276.67 8799.83 3366.33 8719.5 3456C8804.04 3596.92 8888.71 3737.75 8973.5 3878.5C8917.5 3879.67 8861.5 3879.83 8805.5 3879C8746.71 3771.25 8688.04 3663.41 8629.5 3555.5C8594.78 3593.27 8560.28 3631.27 8526 3669.5C8525.5 3739.5 8525.33 3809.5 8525.5 3879.5C8482.17 3879.5 8438.83 3879.5 8395.5 3879.5C8395.5 3648.5 8395.5 3417.5 8395.5 3186.5Z" fill="#EC3136"/>
<path opacity="0.998" fill-rule="evenodd" clip-rule="evenodd" d="M7747.5 3186.5C7852.83 3186.33 7958.17 3186.5 8063.5 3187C8091.12 3188 8118.46 3191.33 8145.5 3197C8196.58 3209.75 8232.75 3240.25 8254 3288.5C8274.84 3340 8278.18 3392.67 8264 3446.5C8244.42 3509.08 8202.92 3548.91 8139.5 3566C8128.51 3568.83 8117.51 3571.5 8106.5 3574C8146.71 3599.21 8179.21 3632.05 8204 3672.5C8244.92 3740.67 8285.09 3809.34 8324.5 3878.5C8272.84 3879.67 8221.17 3879.83 8169.5 3879C8128.87 3813.58 8088.37 3748.08 8048 3682.5C8036.41 3664.31 8024.07 3646.64 8011 3629.5C8005.17 3623.67 7999.33 3617.83 7993.5 3612C7975.32 3598.05 7954.65 3591.05 7931.5 3591C7913.84 3590.5 7896.17 3590.33 7878.5 3590.5C7878.5 3686.83 7878.5 3783.17 7878.5 3879.5C7834.83 3879.5 7791.17 3879.5 7747.5 3879.5C7747.5 3648.5 7747.5 3417.5 7747.5 3186.5ZM7878.5 3304.5C7936.83 3304.33 7995.17 3304.5 8053.5 3305C8108.52 3306.69 8136.86 3335.02 8138.5 3390C8139.44 3416.19 8130.77 3438.53 8112.5 3457C8099.46 3467.68 8084.46 3473.68 8067.5 3475C8053.87 3476.51 8040.2 3477.51 8026.5 3478C7977.17 3478.5 7927.83 3478.67 7878.5 3478.5C7878.5 3420.5 7878.5 3362.5 7878.5 3304.5Z" fill="#EC3136"/>
<path opacity="0.997" fill-rule="evenodd" clip-rule="evenodd" d="M7285.5 3186.5C7331.74 3186.17 7377.91 3186.5 7424 3187.5C7509.87 3417.95 7595.04 3648.62 7679.5 3879.5C7632.83 3879.67 7586.17 3879.5 7539.5 3879C7520.67 3826.67 7502.33 3774.17 7484.5 3721.5C7399.17 3721.33 7313.83 3721.5 7228.5 3722C7210.33 3774.33 7192.67 3826.83 7175.5 3879.5C7129.5 3879.5 7083.5 3879.5 7037.5 3879.5C7119.77 3648.37 7202.43 3417.37 7285.5 3186.5ZM7352.5 3351.5C7353.75 3351.58 7354.58 3352.24 7355 3353.5C7383.73 3436.54 7412.57 3519.54 7441.5 3602.5C7383.84 3603.5 7326.17 3603.83 7268.5 3603.5C7296.7 3519.57 7324.7 3435.57 7352.5 3351.5Z" fill="#EC3136"/>
<path opacity="0.997" fill-rule="evenodd" clip-rule="evenodd" d="M6572.5 3186.5C6662.83 3186.33 6753.17 3186.5 6843.5 3187C6863.88 3187.58 6884.22 3188.91 6904.5 3191C6954.09 3196.7 6993.59 3219.53 7023 3259.5C7042.78 3287.42 7055.11 3318.42 7060 3352.5C7065.45 3391.08 7064.12 3429.41 7056 3467.5C7038.61 3534.88 6997.44 3580.71 6932.5 3605C6902.62 3612.28 6872.29 3616.28 6841.5 3617C6795.51 3618.28 6749.51 3618.78 6703.5 3618.5C6703.67 3705.17 6703.5 3791.83 6703 3878.5C6659.57 3879.5 6616.07 3879.83 6572.5 3879.5C6572.5 3648.5 6572.5 3417.5 6572.5 3186.5ZM6703.5 3304.5C6741.5 3304.33 6779.5 3304.5 6817.5 3305C6837.04 3304.84 6856.04 3307.84 6874.5 3314C6910.87 3331.59 6929.2 3360.75 6929.5 3401.5C6928.87 3440.62 6911.54 3469.45 6877.5 3488C6858.12 3494.9 6838.12 3498.56 6817.5 3499C6779.51 3500.31 6741.51 3500.81 6703.5 3500.5C6703.5 3435.17 6703.5 3369.83 6703.5 3304.5Z" fill="#EC3136"/>
<path opacity="0.998" fill-rule="evenodd" clip-rule="evenodd" d="M6139.5 3173.5C6199.14 3169.99 6255.8 3181.16 6309.5 3207C6375.57 3243.93 6421.4 3298.1 6447 3369.5C6467.3 3431.22 6475.63 3494.55 6472 3559.5C6470.77 3624.43 6455.43 3685.76 6426 3743.5C6375.86 3830.88 6300.36 3879.72 6199.5 3890C6134.53 3896.95 6072.53 3886.62 6013.5 3859C5948.6 3823.41 5903.1 3770.91 5877 3701.5C5861.45 3658.18 5852.78 3613.52 5851 3567.5C5847.47 3506.84 5853.47 3447.17 5869 3388.5C5889.55 3320.98 5927.72 3265.81 5983.5 3223C6018.61 3199.18 6057.27 3184.18 6099.5 3178C6112.95 3176.16 6126.28 3174.66 6139.5 3173.5ZM6146.5 3294.5C6231.07 3290.98 6288.91 3328.31 6320 3406.5C6329.54 3434.39 6335.2 3463.06 6337 3492.5C6339.73 3529.32 6338.4 3565.98 6333 3602.5C6327.27 3644.74 6311.27 3682.4 6285 3715.5C6239.98 3763.5 6185.15 3780.33 6120.5 3766C6074.83 3753 6040.33 3725.83 6017 3684.5C5998.72 3649.05 5988.39 3611.39 5986 3571.5C5980.98 3517.84 5985.98 3465.17 6001 3413.5C6024.88 3343.43 6073.38 3303.77 6146.5 3294.5Z" fill="#EC3136"/>
<path opacity="0.998" fill-rule="evenodd" clip-rule="evenodd" d="M5231.5 3186.5C5274.07 3186.17 5316.57 3186.5 5359 3187.5C5446 3340.83 5533 3494.17 5620 3647.5C5620.5 3493.83 5620.67 3340.17 5620.5 3186.5C5660.83 3186.5 5701.17 3186.5 5741.5 3186.5C5741.5 3417.5 5741.5 3648.5 5741.5 3879.5C5697.83 3879.83 5654.16 3879.5 5610.5 3878.5C5524.67 3728.17 5438.83 3577.83 5353 3427.5C5352.5 3578.17 5352.33 3728.83 5352.5 3879.5C5312.17 3879.5 5271.83 3879.5 5231.5 3879.5C5231.5 3648.5 5231.5 3417.5 5231.5 3186.5Z" fill="#EC3136"/>
<path opacity="0.998" fill-rule="evenodd" clip-rule="evenodd" d="M4585.5 3186.5C4629.17 3186.5 4672.83 3186.5 4716.5 3186.5C4716.5 3277.17 4716.5 3367.83 4716.5 3458.5C4800.17 3458.5 4883.83 3458.5 4967.5 3458.5C4967.5 3367.83 4967.5 3277.17 4967.5 3186.5C5011.17 3186.5 5054.83 3186.5 5098.5 3186.5C5098.5 3417.5 5098.5 3648.5 5098.5 3879.5C5054.83 3879.5 5011.17 3879.5 4967.5 3879.5C4967.5 3778.5 4967.5 3677.5 4967.5 3576.5C4883.83 3576.5 4800.17 3576.5 4716.5 3576.5C4716.5 3677.5 4716.5 3778.5 4716.5 3879.5C4672.83 3879.5 4629.17 3879.5 4585.5 3879.5C4585.5 3648.5 4585.5 3417.5 4585.5 3186.5Z" fill="#EC3136"/>
<path opacity="0.997" fill-rule="evenodd" clip-rule="evenodd" d="M4198.5 3173.5C4253.21 3170.21 4304.88 3181.04 4353.5 3206C4401.87 3233.37 4436.37 3272.87 4457 3324.5C4463.53 3341.6 4469.37 3358.93 4474.5 3376.5C4431.98 3388.13 4389.31 3399.47 4346.5 3410.5C4340.5 3385.17 4329.67 3362.17 4314 3341.5C4280.22 3303.79 4238.05 3288.62 4187.5 3296C4136.59 3305.25 4099.76 3333.08 4077 3379.5C4064.32 3408.88 4056.65 3439.55 4054 3471.5C4048.88 3526.17 4051.21 3580.5 4061 3634.5C4066.93 3666.01 4079.6 3694.35 4099 3719.5C4141.45 3765.99 4192.95 3780.16 4253.5 3762C4283.22 3749.61 4306.06 3729.44 4322 3701.5C4335.1 3676.52 4344.44 3650.19 4350 3622.5C4391.73 3636.3 4433.4 3650.3 4475 3664.5C4463.72 3719.38 4440.39 3768.38 4405 3811.5C4358.22 3860.57 4300.72 3886.73 4232.5 3890C4119.49 3896.41 4032.33 3852.58 3971 3758.5C3937.73 3700.35 3920.06 3637.68 3918 3570.5C3914.06 3506.99 3920.72 3444.66 3938 3383.5C3957.29 3317.93 3994.12 3264.76 4048.5 3224C4093.74 3193.09 4143.74 3176.25 4198.5 3173.5Z" fill="#EC3136"/>
<path opacity="0.998" fill-rule="evenodd" clip-rule="evenodd" d="M3344.5 3186.5C3502.5 3186.5 3660.5 3186.5 3818.5 3186.5C3818.5 3225.83 3818.5 3265.17 3818.5 3304.5C3703.83 3304.5 3589.17 3304.5 3474.5 3304.5C3474.5 3355.17 3474.5 3405.83 3474.5 3456.5C3581.17 3456.5 3687.83 3456.5 3794.5 3456.5C3794.5 3495.83 3794.5 3535.17 3794.5 3574.5C3687.83 3574.5 3581.17 3574.5 3474.5 3574.5C3474.5 3636.83 3474.5 3699.17 3474.5 3761.5C3593.5 3761.5 3712.5 3761.5 3831.5 3761.5C3831.5 3800.83 3831.5 3840.17 3831.5 3879.5C3669.17 3879.5 3506.83 3879.5 3344.5 3879.5C3344.5 3648.5 3344.5 3417.5 3344.5 3186.5Z" fill="#EC3136"/>
<path opacity="0.998" fill-rule="evenodd" clip-rule="evenodd" d="M2752.5 3186.5C2922.17 3186.5 3091.83 3186.5 3261.5 3186.5C3261.5 3225.83 3261.5 3265.17 3261.5 3304.5C3198.5 3304.5 3135.5 3304.5 3072.5 3304.5C3072.5 3496.17 3072.5 3687.83 3072.5 3879.5C3029.17 3879.5 2985.83 3879.5 2942.5 3879.5C2942.5 3687.83 2942.5 3496.17 2942.5 3304.5C2879.17 3304.5 2815.83 3304.5 2752.5 3304.5C2752.5 3265.17 2752.5 3225.83 2752.5 3186.5Z" fill="#EC3136"/>
<path opacity="0.994" fill-rule="evenodd" clip-rule="evenodd" d="M2145.5 3073.5C2271.55 3071.21 2377.38 3115.88 2463 3207.5C2544.45 3302.24 2577.12 3411.91 2561 3536.5C2540.21 3659.69 2477.37 3754.52 2372.5 3821C2264.4 3883.51 2150.73 3895.84 2031.5 3858C1913.52 3815.02 1831.36 3735.19 1785 3618.5C1748.1 3514.51 1751.43 3411.84 1795 3310.5C1842.87 3209.3 1919.03 3138.47 2023.5 3098C2063.13 3083.97 2103.8 3075.81 2145.5 3073.5ZM2153.5 3141.5C2208.32 3141.16 2257.32 3157.66 2300.5 3191C2348.38 3230.22 2382.88 3279.05 2404 3337.5C2439.75 3440.85 2437.09 3543.18 2396 3644.5C2372.54 3698.96 2337.04 3743.79 2289.5 3779C2203.07 3834.78 2117.07 3834.11 2031.5 3777C1977.15 3735.28 1938.99 3681.78 1917 3616.5C1884.43 3516.26 1887.76 3417.26 1927 3319.5C1949.89 3265.29 1984.72 3220.46 2031.5 3185C2068.14 3159.07 2108.81 3144.57 2153.5 3141.5Z" fill="#29334D"/>
<path opacity="0.994" fill-rule="evenodd" clip-rule="evenodd" d="M1472.5 2828.5C1511.17 2828.5 1549.83 2828.5 1588.5 2828.5C1588.66 3157.5 1589.33 3486.5 1590.5 3815.5C1644.83 3816 1699.17 3816.33 1753.5 3816.5C1754.2 3838.82 1754.87 3861.15 1755.5 3883.5C1660.26 3883.83 1565.1 3883.5 1470 3882.5C1470.6 3531.17 1471.43 3179.84 1472.5 2828.5Z" fill="#29334D"/>
<path opacity="0.99" fill-rule="evenodd" clip-rule="evenodd" d="M932.5 3083.5C1010.04 3084.4 1080.04 3107.57 1142.5 3153C1178.15 3179.65 1210.32 3210.15 1239 3244.5C1238.19 3227.26 1234.52 3210.59 1228 3194.5C1227.33 3193.17 1227.33 3191.83 1228 3190.5C1281.71 3243.92 1312.37 3308.59 1320 3384.5C1321.2 3397.48 1322.2 3410.48 1323 3423.5C1328.5 3417.51 1332.16 3410.51 1334 3402.5C1336.41 3389.92 1338.08 3377.25 1339 3364.5C1348.01 3419.96 1349.68 3475.63 1344 3531.5C1338.88 3582.23 1321.21 3627.9 1291 3668.5C1265.04 3699.08 1233.54 3722.24 1196.5 3738C1204.82 3739.96 1213.16 3739.96 1221.5 3738C1237.15 3733.84 1252.15 3728.01 1266.5 3720.5C1267.52 3721 1267.69 3721.67 1267 3722.5C1220.53 3786.92 1159.03 3830.42 1082.5 3853C1037.47 3866.88 991.466 3872.21 944.5 3869C875.321 3861.42 817.154 3832.25 770 3781.5C748.296 3753.42 732.963 3722.09 724 3687.5C711.288 3628.7 723.288 3575.7 760 3528.5C766.167 3522.33 772.333 3516.17 778.5 3510C804.55 3492.87 832.883 3481.2 863.5 3475C920.04 3466.15 963.54 3485.65 994 3533.5C1004.26 3551.78 1009.59 3571.45 1010 3592.5C1012.97 3621.03 1007.97 3648.03 995 3673.5C973.334 3707.58 942.501 3721.41 902.5 3715C878.963 3708.11 866.463 3692.27 865 3667.5C862.914 3652.26 865.581 3637.93 873 3624.5C881.244 3612.97 892.41 3608.47 906.5 3611C919.333 3614.67 930.166 3621.5 939 3631.5C934.483 3617.31 925.317 3607.14 911.5 3601C897.7 3597.89 885.367 3600.89 874.5 3610C851.918 3631.41 843.085 3657.58 848 3688.5C854.756 3720.57 872.256 3744.74 900.5 3761C947.353 3787.22 997.019 3794.22 1049.5 3782C1072.42 3776.92 1094.42 3769.25 1115.5 3759C1106.4 3756.3 1097.74 3752.64 1089.5 3748C1076.26 3737.04 1075.09 3724.87 1086 3711.5C1092.15 3704.35 1099.65 3699.19 1108.5 3696C1127.08 3690.69 1145.75 3685.69 1164.5 3681C1199.88 3671.24 1230.38 3653.4 1256 3627.5C1259.54 3622.92 1262.71 3618.09 1265.5 3613C1251.89 3614.85 1238.22 3614.85 1224.5 3613C1215.04 3610.77 1210.04 3604.77 1209.5 3595C1210.58 3586.08 1213.08 3577.58 1217 3569.5C1231.16 3544.5 1245.83 3519.84 1261 3495.5C1267.38 3484.4 1272.38 3472.74 1276 3460.5C1283.02 3418.43 1280.02 3377.1 1267 3336.5C1263.67 3341.17 1260.33 3345.83 1257 3350.5C1244.63 3364.91 1231.13 3366.07 1216.5 3354C1206.87 3344.71 1198.37 3334.54 1191 3323.5C1170.79 3291.29 1149.79 3259.62 1128 3228.5C1098.72 3190.59 1061.22 3164.09 1015.5 3149C926.464 3120.48 845.131 3134.81 771.5 3192C718.186 3236 678.686 3290.16 653 3354.5C607.878 3472.4 605.878 3591.07 647 3710.5C650.615 3718.85 653.448 3727.18 655.5 3735.5C572.614 3639.3 544.114 3528.64 570 3403.5C596.267 3295.65 654.434 3209.82 744.5 3146C801.311 3107.45 863.978 3086.62 932.5 3083.5Z" fill="#00FE01"/>
<path opacity="0.993" fill-rule="evenodd" clip-rule="evenodd" d="M-0.5 3748.5C-0.5 3747.83 -0.5 3747.17 -0.5 3746.5C22.8072 3735.85 46.1405 3725.18 69.5 3714.5C101.149 3777.76 152.482 3811.43 223.5 3815.5C269.654 3815.17 307.487 3797.5 337 3762.5C353.028 3739.42 361.695 3713.75 363 3685.5C363.939 3661.01 360.939 3637.01 354 3613.5C344.017 3594.52 330.184 3579.02 312.5 3567C293.831 3555.17 274.165 3545.17 253.5 3537C216.515 3523.12 179.848 3508.45 143.5 3493C103.603 3474.77 69.1032 3449.27 40 3416.5C6.70061 3372.36 -4.29939 3323.03 7 3268.5C26.2325 3166.94 86.0658 3104.1 186.5 3080C257.208 3065.43 324.541 3074.77 388.5 3108C424.71 3128.54 451.544 3157.71 469 3195.5C469.684 3196.78 469.517 3197.95 468.5 3199C445.327 3212.09 421.994 3224.92 398.5 3237.5C395.517 3228.57 392.684 3219.57 390 3210.5C385.193 3198.39 378.027 3187.89 368.5 3179C326.058 3144.44 278.058 3133.44 224.5 3146C179.792 3160.37 148.959 3189.54 132 3233.5C112.669 3293.17 127.169 3343.01 175.5 3383C188.901 3391.37 202.901 3398.7 217.5 3405C264.652 3423.16 311.319 3442.5 357.5 3463C384.859 3476 410.193 3492 433.5 3511C468.408 3540.32 487.242 3577.82 490 3623.5C495.918 3721.17 457.752 3796 375.5 3848C308.047 3886.68 236.381 3897.02 160.5 3879C110.02 3867.45 67.1869 3842.95 32 3805.5C18.0482 3788.26 7.21487 3769.26 -0.5 3748.5Z" fill="#29334D"/>
</g>
<defs>
<clipPath id="clip0_68_35">
<rect width="10253" height="5651" fill="white"/>
</clipPath>
</defs>
</svg>
