<svg width="16" height="18" viewBox="0 0 16 18" fill="none" xmlns="http://www.w3.org/2000/svg">
<path d="M12.5999 2.82C11.9165 2.03953 11.5398 1.0374 11.5399 0H8.44991V12.4C8.42657 13.0712 8.14343 13.7071 7.66022 14.1735C7.17701 14.6399 6.53151 14.9004 5.85991 14.9C4.43991 14.9 3.25991 13.74 3.25991 12.3C3.25991 10.58 4.91991 9.29 6.62991 9.82V6.66C3.17991 6.2 0.159912 8.88 0.159912 12.3C0.159912 15.63 2.91991 18 5.84991 18C8.98991 18 11.5399 15.45 11.5399 12.3V6.01C12.7929 6.90985 14.2973 7.39265 15.8399 7.39V4.3C15.8399 4.3 13.9599 4.39 12.5999 2.82Z" fill="#E6E6E6"/>
</svg>
