<svg width="26" height="26" viewBox="0 0 26 26" fill="none" xmlns="http://www.w3.org/2000/svg">
<path fill-rule="evenodd" clip-rule="evenodd" d="M8.66667 4.33334C7.5174 4.33334 6.4152 4.78988 5.60254 5.60254C4.78988 6.4152 4.33333 7.5174 4.33333 8.66667C4.33333 9.81594 4.78988 10.9181 5.60254 11.7308C6.4152 12.5435 7.5174 13 8.66667 13C9.81594 13 10.9181 12.5435 11.7308 11.7308C12.5435 10.9181 13 9.81594 13 8.66667C13 7.5174 12.5435 6.4152 11.7308 5.60254C10.9181 4.78988 9.81594 4.33334 8.66667 4.33334ZM6.5 14.0833C5.35073 14.0833 4.24853 14.5399 3.43587 15.3525C2.62321 16.1652 2.16667 17.2674 2.16667 18.4167V19.5C2.16667 20.0746 2.39494 20.6257 2.80127 21.0321C3.2076 21.4384 3.7587 21.6667 4.33333 21.6667H13C13.5746 21.6667 14.1257 21.4384 14.5321 21.0321C14.9384 20.6257 15.1667 20.0746 15.1667 19.5V18.4167C15.1667 17.2674 14.7101 16.1652 13.8975 15.3525C13.0848 14.5399 11.9826 14.0833 10.8333 14.0833H6.5ZM14.3542 11.8138C14.872 10.8821 15.1667 9.80959 15.1667 8.66667C15.1669 7.5654 14.8873 6.48212 14.3542 5.5185C14.9693 4.93646 15.7415 4.54742 16.5753 4.39945C17.4092 4.25149 18.2681 4.35109 19.0459 4.68595C19.8238 5.0208 20.4864 5.57624 20.952 6.28361C21.4177 6.99098 21.6658 7.81927 21.6658 8.66613C21.6658 9.51299 21.4177 10.3413 20.952 11.0487C20.4864 11.756 19.8238 12.3115 19.0459 12.6463C18.2681 12.9812 17.4092 13.0808 16.5753 12.9328C15.7415 12.7848 14.9693 12.3958 14.3542 11.8138ZM16.7548 21.6667C17.1232 21.0297 17.3344 20.2898 17.3344 19.5V18.4167C17.3364 16.8174 16.7468 15.2739 15.6791 14.0833H19.5C20.6493 14.0833 21.7515 14.5399 22.5641 15.3525C23.3768 16.1652 23.8333 17.2674 23.8333 18.4167V19.5C23.8333 20.0746 23.6051 20.6257 23.1987 21.0321C22.7924 21.4384 22.2413 21.6667 21.6667 21.6667H16.7548Z" fill="#B4B4C7"/>
</svg>
